<svg width="64" height="64" viewBox="0 0 64 64" fill="none" xmlns="http://www.w3.org/2000/svg">
    <g clip-path="url(#clip0_2178_2)">
        <path d="M33.616 44.992H26.128C25.872 43.456 25.68 42.624 25.36 41.536L24.496 38.816H15.376L14.512 41.536C14.096 42.816 13.872 43.808 13.712 44.992H6.224C6.704 44.032 6.992 43.264 7.76 41.088L14.672 21.824C15.248 20.256 15.536 19.296 15.696 18.368H24.048C24.272 19.296 24.496 20.128 25.136 21.824L32.08 41.088C32.688 42.784 33.2 44.096 33.616 44.992ZM22.928 33.44L19.888 23.84L16.912 33.44H22.928ZM56.8518 39.168V45.216C55.5078 45.056 54.2278 44.992 51.8918 44.992H39.5078C37.3958 44.992 36.2118 45.024 34.7398 45.088V39.552C35.5078 38.784 36.3078 37.952 37.6518 36.288L46.9958 25.088C47.2198 24.832 47.3158 24.704 47.9878 23.936C47.4118 23.968 46.7398 23.968 46.3878 23.968H40.6278C38.5158 23.968 36.9478 24.032 35.7318 24.192V18.144C37.4598 18.304 38.7398 18.368 40.6278 18.368H51.4757C53.2678 18.368 54.1638 18.336 56.2758 18.272V23.616C55.5078 24.384 54.4838 25.536 53.1398 27.2L44.0518 38.176C43.7958 38.496 43.5398 38.784 42.9638 39.424C43.2517 39.392 43.7958 39.392 44.5958 39.392H51.8918C53.8438 39.392 55.1878 39.328 56.8518 39.168Z" fill="#94A9C6"/>
        <rect x="0.5" y="0.5" width="63" height="63" stroke="#94A9C6" stroke-dasharray="2 2"/>
    </g>
    <defs>
        <clipPath id="clip0_2178_2">
            <rect width="64" height="64" fill="white"/>
        </clipPath>
    </defs>
</svg>
